<svg width="16" height="16" viewBox="0 0 16 16" fill="none" xmlns="http://www.w3.org/2000/svg">
<g id="Arrows / arrow-top-right">
<rect width="16" height="16" fill="white" fill-opacity="0.01"/>
<path id="Vector" fill-rule="evenodd" clip-rule="evenodd" d="M3.88955 12.1105C3.68127 11.9022 3.68127 11.5645 3.88955 11.3563L10.9791 4.26668H6.40001C6.10546 4.26668 5.86667 4.02789 5.86667 3.73335C5.86667 3.4388 6.10546 3.20001 6.40001 3.20001H12.2667C12.4081 3.20001 12.5438 3.2562 12.6438 3.35623C12.7438 3.45625 12.8 3.59189 12.8 3.73335V9.60002C12.8 9.89457 12.5612 10.1334 12.2667 10.1334C11.9722 10.1334 11.7333 9.89457 11.7333 9.60002V5.02093L4.64379 12.1105C4.43552 12.3187 4.09783 12.3187 3.88955 12.1105Z" fill="white"/>
</g>
</svg>
