<svg width="16" height="16" viewBox="0 0 16 16" fill="none" xmlns="http://www.w3.org/2000/svg">
<rect width="16" height="16" fill="white" fill-opacity="0.01"/>
<path fill-rule="evenodd" clip-rule="evenodd" d="M10.6667 6.93336C10.6667 8.99523 8.9952 10.6667 6.93333 10.6667C4.87147 10.6667 3.2 8.99523 3.2 6.93336C3.2 4.8715 4.87147 3.20003 6.93333 3.20003C8.9952 3.20003 10.6667 4.8715 10.6667 6.93336ZM9.92943 10.6837C9.10828 11.3406 8.06668 11.7334 6.93333 11.7334C4.28237 11.7334 2.13333 9.58433 2.13333 6.93336C2.13333 4.2824 4.28237 2.13336 6.93333 2.13336C9.5843 2.13336 11.7333 4.2824 11.7333 6.93336C11.7333 8.06671 11.3406 9.10831 10.6836 9.92946L13.7105 12.9562C13.9187 13.1645 13.9187 13.5022 13.7105 13.7105C13.5022 13.9187 13.1645 13.9187 12.9562 13.7105L9.92943 10.6837Z" fill="#848FAB"/>
</svg>
